<svg xmlns="http://www.w3.org/2000/svg" width="32" height="32" viewBox="0 0 400 400">
  <rect width="400" height="400" rx="48" fill="#0A0A0A"/>
  <!-- Simplified enso -->
  <g fill="none" stroke="#a8a8a8" stroke-linecap="round">
    <path d="M268,310
             C320,284 352,238 348,186
             C344,134 306,102 258,96
             C210,90 164,112 144,152
             C124,192 132,244 162,278
             C184,300 212,312 242,310"
          stroke-width="12"
          opacity="0.82"/>
  </g>
  <!-- Simplified lattice — just a few key diagonals -->
  <g stroke="#4a4a4a" stroke-width="2" opacity="0.5">
    <line x1="160" y1="120" x2="320" y2="280"/>
    <line x1="160" y1="180" x2="280" y2="300"/>
    <line x1="200" y1="100" x2="340" y2="240"/>
    <line x1="320" y1="120" x2="160" y2="280"/>
    <line x1="280" y1="100" x2="160" y2="220"/>
    <line x1="340" y1="180" x2="200" y2="300"/>
  </g>
  <!-- Center dot -->
  <circle cx="220" cy="205" r="10" fill="#888888"/>
  <!-- Simplified vine -->
  <g fill="none" stroke="#a0a0a0" stroke-width="6" stroke-linecap="round">
    <path d="M220,205 C216,170 210,140 220,100 C230,60 220,30 216,16"/>
  </g>
  <!-- Two simplified leaves -->
  <path d="M225,120 C260,105 300,105 330,115" fill="none" stroke="#909090" stroke-width="5" stroke-linecap="round"/>
  <path d="M215,80 C185,65 150,65 130,72" fill="none" stroke="#909090" stroke-width="5" stroke-linecap="round"/>
</svg>
